PathFileType	4	(X/Y/Z)	TVC_4_BWA_6_walk_RCNL2025.trc
DataRate	CameraRate	NumFrames	NumMarkers	Units	OrigDataRate	OrigDataStartFrame	OrigNumFrames
100	100	8	27	mm	100	53	420
Frame#	Time	R_Shoulder			L_Shoulder			C7			J_Notch			R_Elbow			L_Elbow			R_Wrist			L_Wrist			R_Asis			L_Asis			R_Psis			L_Psis			Sacral			Thoracic			Sternum			R_Thigh_Lateral			R_Knee_Lateral			R_Shank_Lateral			R_Ankle_Lateral			R_Heel			R_Toe			L_Thigh_Lateral			L_Knee_Lateral			L_Shank_Lateral			L_Ankle_Lateral			L_Heel			L_Toe		
		X1	Y1	Z1	X2	Y2	Z2	X3	Y3	Z3	X4	Y4	Z4	X5	Y5	Z5	X6	Y6	Z6	X7	Y7	Z7	X8	Y8	Z8	X9	Y9	Z9	X10	Y10	Z10	X11	Y11	Z11	X12	Y12	Z12	X13	Y13	Z13	X14	Y14	Z14	X15	Y15	Z15	X16	Y16	Z16	X17	Y17	Z17	X18	Y18	Z18	X19	Y19	Z19	X20	Y20	Z20	X21	Y21	Z21	X22	Y22	Z22	X23	Y23	Z23	X24	Y24	Z24	X25	Y25	Z25	X26	Y26	Z26	X27	Y27	Z27
53	0.52000000	-2130.464111	1291.681763	302.152313	-2100.296631	1306.031494	-78.411118	-2176.154053	1363.740601	120.703720	-2028.700317	1247.427002	107.738312	-2209.450195	986.983154	362.978424	-2111.436523	979.944214	-155.004089	-2159.959229	760.966522	365.403137	-1969.046997	819.704895	-119.754478	-2102.647461	854.826294	284.217926	-2141.894531	846.847900	-67.875648	-2260.081299	884.377686	175.325195	-2266.009521	884.404846	83.971489	-2263.045410	884.391266	129.648342	-2253.901855	1116.126831	113.406700	-1992.201294	1057.156250	106.426323	-2017.681641	518.260315	311.188904	-1994.521118	434.285492	260.917236	-1968.618530	268.006378	332.031006	-1920.297485	54.417694	243.601151	-1963.887573	36.692020	196.461166	-1792.062012	70.587677	226.277603	-2150.225342	488.517700	-68.937805	-2172.091553	407.149261	-18.425955	-2207.961670	288.747467	-62.223289	-2291.683350	48.649670	18.739084	-2337.754150	44.608246	65.807220	-2158.212891	33.928940	31.800377
54	0.53000000	-2120.991943	1290.211792	303.738220	-2090.944336	1305.061523	-76.827293	-2166.863770	1362.433472	122.369972	-2019.281372	1246.249390	109.168663	-2201.480957	986.036865	364.563904	-2101.588379	979.110840	-153.942886	-2154.013672	759.640350	368.010101	-1957.377991	820.508026	-118.025429	-2092.190674	853.795288	285.058990	-2133.443359	845.522766	-67.010880	-2250.187012	883.054077	176.887756	-2256.437012	882.877197	85.623344	-2253.312012	882.965637	131.255550	-2244.398193	1114.696411	114.786331	-1982.541260	1056.052124	107.322433	-2008.751587	516.471741	313.128418	-1985.769531	432.766113	261.970215	-1955.323486	266.855469	332.577362	-1903.916382	53.932663	243.186813	-1947.766235	35.636280	196.644150	-1776.021362	72.032021	224.301865	-2144.361328	487.227722	-68.102135	-2167.288574	406.157715	-17.544428	-2204.890869	288.349426	-61.619083	-2291.646973	49.107811	18.789717	-2337.700439	45.218727	65.903885	-2158.223145	33.908562	31.788322
55	0.54000000	-2111.452393	1288.690430	305.459320	-2081.642090	1304.077759	-75.102272	-2157.586670	1361.097290	124.197006	-2009.856934	1245.059082	110.708191	-2193.149170	984.986633	366.328278	-2092.058350	978.246399	-152.729645	-2147.626953	758.258636	370.678497	-1946.157410	821.098724	-116.256828	-2081.702393	852.704346	285.986267	-2124.693604	844.041077	-65.989586	-2240.231689	881.733948	178.514191	-2246.754639	881.340210	87.314644	-2243.493164	881.537079	132.914417	-2234.840820	1113.227783	116.300011	-1972.885376	1054.891479	108.293961	-1998.450928	515.276306	314.628387	-1976.268921	431.475433	262.840942	-1942.868652	265.762451	332.888275	-1890.635376	53.311607	242.729095	-1934.904419	34.876286	196.822632	-1763.046875	72.040985	222.233246	-2138.221436	485.909454	-67.145897	-2162.251953	405.161407	-16.570555	-2201.660645	288.002716	-60.946102	-2291.591797	49.711685	18.855959	-2337.627441	46.021858	66.024368	-2158.232422	33.882050	31.777004
56	0.55000000	-2101.843750	1287.150635	307.310516	-2072.397461	1303.111450	-73.246895	-2148.315674	1359.768921	126.180206	-2000.424316	1243.890503	112.349731	-2184.445801	983.856262	368.266907	-2082.844971	977.377869	-151.364090	-2140.791016	756.850800	373.399429	-1935.411560	821.490417	-114.469410	-2071.238525	851.578918	287.018524	-2115.559570	842.398193	-64.780907	-2230.240479	880.473328	180.195862	-2236.984375	879.848511	89.031975	-2233.612427	880.160919	134.613918	-2225.239014	1111.772827	117.945137	-1963.220093	1053.706543	109.364708	-1986.915771	514.687744	315.561218	-1966.026123	430.470703	263.458679	-1931.286377	264.664001	332.909546	-1880.282715	52.521999	242.278671	-1925.099854	34.368851	196.985657	-1752.919312	70.568535	220.197205	-2131.750244	484.600464	-66.062340	-2156.908447	404.192963	-15.496685	-2198.214111	287.753357	-60.203964	-2291.482666	50.516987	18.937134	-2337.509521	47.105801	66.162941	-2158.231689	33.845356	31.761810
57	0.56000000	-2092.160645	1285.634399	309.281647	-2063.210693	1302.199463	-71.278389	-2139.034668	1358.500366	128.309052	-1990.976440	1242.785156	114.081535	-2175.370605	982.682434	370.370941	-2073.943359	976.535400	-149.845856	-2133.499390	755.454376	376.164352	-1925.173340	821.702789	-112.686398	-2060.843506	850.475586	288.172577	-2106.023682	840.629822	-63.389133	-2220.247314	879.335938	181.918671	-2227.160400	878.459839	90.759079	-2223.703857	878.897888	136.338875	-2215.607666	1110.399780	119.717743	-1953.528198	1052.546387	110.555901	-1974.437256	514.648987	315.913147	-1955.110352	429.806091	263.786835	-1920.488525	263.565704	332.613831	-1872.536255	51.619446	241.871521	-1917.979248	34.128345	197.102692	-1745.287720	67.737099	218.310806	-2124.880615	483.343842	-64.844925	-2151.158691	403.294250	-14.315612	-2194.476074	287.668091	-59.403255	-2291.272705	51.602047	19.026976	-2337.305176	48.580345	66.310661	-2158.210449	33.794353	31.738319
58	0.57000000	-2082.396729	1284.192627	311.358246	-2054.072266	1301.383545	-69.219017	-2129.718750	1357.357422	130.567368	-1981.503540	1241.791504	115.890198	-2165.933594	981.514160	372.625702	-2065.350586	975.755737	-148.175156	-2125.743042	754.115265	378.959503	-1915.473450	821.756561	-110.930035	-2050.549561	849.482849	289.457245	-2096.112305	838.797424	-61.832615	-2210.287109	878.387146	183.663956	-2217.322754	877.230957	92.478180	-2213.804932	877.809052	138.071068	-2205.966553	1109.188477	121.610725	-1943.795654	1051.476196	111.881882	-1961.347900	515.084351	315.778625	-1943.649658	429.517273	263.837128	-1910.291382	262.542572	332.015656	-1866.948975	50.712315	241.524384	-1913.042847	34.188530	197.149292	-1739.702271	63.840511	216.657928	-2117.532715	482.183441	-63.487545	-2144.873291	402.512238	-13.021901	-2190.345947	287.827576	-58.560730	-2290.909912	53.073700	19.112206	-2336.953613	50.578747	66.455437	-2158.158691	33.724972	31.704721
59	0.58000000	-2072.546631	1282.884399	313.522156	-2044.964966	1300.710693	-67.094383	-2120.338135	1356.412842	132.934708	-1971.996826	1240.963013	117.764824	-2156.150391	980.410828	375.010254	-2057.065430	975.084473	-146.352371	-2117.508667	752.888489	381.763855	-1906.337402	821.672577	-109.217621	-2040.380493	848.713196	290.871094	-2085.869141	836.974731	-60.124409	-2200.386230	877.682861	185.411469	-2207.509766	876.211243	94.173355	-2203.947998	876.947052	139.792412	-2196.335693	1108.219727	123.611115	-1934.017456	1050.572144	113.345665	-1947.938843	515.930237	315.322021	-1931.824829	429.603394	263.672546	-1900.478516	261.714844	331.187164	-1863.004517	49.905888	241.242188	-1909.735962	34.554539	197.130814	-1735.672485	59.308243	215.268143	-2109.610596	481.156464	-61.986263	-2137.893066	401.890686	-11.616929	-2185.685791	288.309479	-57.691708	-2290.336914	55.064457	19.173649	-2336.373047	53.254459	66.583664	-2158.069092	33.633270	31.664890
60	0.59000000	-2062.609619	1281.773315	315.753448	-2035.864014	1300.227905	-64.927628	-2110.864258	1355.734131	135.387558	-1962.451660	1240.349487	119.699226	-2146.042725	979.438171	377.499542	-2049.082031	974.572510	-144.377625	-2108.781250	751.835510	384.550720	-1897.788513	821.473328	-107.558861	-2030.353149	848.282959	292.402863	-2075.363281	835.250854	-58.277241	-2190.553467	877.257080	187.144257	-2197.750977	875.435913	95.835976	-2194.152222	876.346497	141.490116	-2186.730225	1107.557739	125.698158	-1924.200317	1049.911133	114.938927	-1934.453613	517.124939	314.733826	-1919.859253	430.012756	263.393768	-1890.870483	261.199432	330.263092	-1860.199097	49.255066	241.025482	-1907.536255	35.177822	197.085037	-1732.741577	54.609230	214.113098	-2101.004883	480.286224	-60.345562	-2130.039551	401.462433	-10.117369	-2180.325195	289.175323	-56.812878	-2289.484131	57.715385	19.190052	-2335.458740	56.768940	66.683739	-2157.936279	33.516666	31.629084
